<svg width="278" height="94" viewBox="0 0 278 94" fill="none" xmlns="http://www.w3.org/2000/svg">
<path fill-rule="evenodd" clip-rule="evenodd" d="M0 46.9694H10.6279V15.7471C10.6279 12.8589 13.0044 10.509 15.9253 10.509H47.5005V0H15.9253C7.14386 0 0 7.06393 0 15.7471V46.9694ZM0 93.9385H31.5752C40.3566 93.9385 47.5005 86.8741 47.5005 78.1914V46.9694H36.8726V78.1914C36.8726 81.0795 34.4965 83.4291 31.5752 83.4291H0V93.9385Z" fill="#21F999"/>
<path fill-rule="evenodd" clip-rule="evenodd" d="M104.37 55.4635C104.37 58.7308 103.09 61.4324 100.53 63.5682C97.9694 65.7044 94.0207 66.7723 88.6851 66.7723C83.4931 66.7723 79.5798 65.6331 76.9482 63.3527C74.3158 61.0731 73 58.0845 73 54.3867L73.5405 53.8485H80.0313L80.5723 54.3867C80.5723 56.3617 81.2296 57.8427 82.5466 58.8296C83.862 59.8174 86.0889 60.3098 89.2257 60.3098C94.2733 60.3098 96.798 58.6952 96.798 55.4635C96.798 53.5978 96.1394 52.2776 94.8236 51.5057C93.507 50.7343 90.9201 50.0786 87.0622 49.5404C85.0427 49.2529 83.2669 48.8584 81.7347 48.355C80.2017 47.8533 78.7956 47.1794 77.516 46.3363C76.236 45.4931 75.2533 44.3892 74.5684 43.024C73.8834 41.6601 73.5405 40.0629 73.5405 38.232C73.5405 35.2887 74.7665 32.8463 77.2187 30.9081C79.6705 28.9691 83.3116 28 88.1442 28C93.0474 28 96.7072 29.0323 99.1237 31.096C101.538 33.161 102.747 35.8981 102.747 39.3084L102.206 39.8466H95.716L95.1751 39.3084C95.1751 37.6213 94.6251 36.3918 93.5253 35.6199C92.4255 34.8485 90.4516 34.4621 87.6032 34.4621C83.2763 34.4621 81.1128 35.7188 81.1128 38.232C81.1128 39.8466 81.7795 41.0137 83.114 41.7317C84.4477 42.4502 87.026 43.0783 90.8486 43.6165C99.8619 44.9092 104.37 48.8584 104.37 55.4635ZM140.607 65.6951L140.067 66.2337H133.035L132.494 65.6951L128.167 49.5404H127.627L123.3 65.6951L122.759 66.2337H115.728L115.187 65.6951L108.697 45.2319V39.8466L109.237 39.3084H114.105L114.646 39.8466L118.973 54.9253H119.514L123.84 39.8466L124.381 39.3084H131.413L131.953 39.8466L136.28 54.9253H136.821L141.148 39.8466L141.689 39.3084H146.556L147.097 39.8466V45.2319L140.607 65.6951ZM160.078 66.2337L160.618 65.6951V39.8466L160.078 39.3084H153.587L153.046 39.8466V65.6951L153.587 66.2337H160.078ZM160.078 35.0003L160.618 34.4621V29.0772L160.078 28.5382H153.587L153.046 29.0772V34.4621L153.587 35.0003H160.078ZM177.925 46.3091V58.1557C177.925 59.2334 178.466 59.7716 179.549 59.7716H184.416L184.957 60.3098V65.6951L184.416 66.2337H179.549C176.879 66.2337 174.68 65.5793 172.949 64.2679C171.219 62.9579 170.354 60.9213 170.354 58.1557V46.3091L169.813 45.7705H166.026L165.486 45.2319V39.8466L166.026 39.3084H169.813L170.354 38.7702V33.9235L170.894 33.3845H177.385L177.925 33.9235V38.7702L178.466 39.3084H184.416L184.957 39.8466V45.2319L184.416 45.7705H178.466L177.925 46.3091ZM195.774 52.7712C195.774 50.3661 196.288 48.5085 197.316 47.1976C198.343 45.8876 199.813 45.2319 201.724 45.2319C204.356 45.2319 205.978 46.1297 206.592 47.9246L207.132 48.4632H213.623L214.163 47.9246C213.659 44.8735 212.261 42.5846 209.971 41.0587C207.681 39.5327 204.933 38.7702 201.724 38.7702C197.649 38.7702 194.377 40.0353 191.907 42.5664C189.437 45.0975 188.203 48.4996 188.203 52.7712C188.203 57.0433 189.437 60.4446 191.907 62.9753C194.377 65.5068 197.649 66.7723 201.724 66.7723C204.933 66.7723 207.681 66.0106 209.971 64.4834C212.261 62.9579 213.659 60.6698 214.163 57.6175L213.623 57.0793H207.132L206.592 57.6175C205.978 59.4136 204.356 60.3098 201.724 60.3098C199.813 60.3098 198.343 59.6549 197.316 58.344C196.288 57.0344 195.774 55.1768 195.774 52.7712ZM244.993 65.6951L244.451 66.2337H237.962L237.42 65.6951V50.0786C237.42 46.8469 235.977 45.2319 233.093 45.2319C229.127 45.2319 227.144 47.5658 227.144 52.2326V65.6951L226.603 66.2337H220.113L219.572 65.6951V29.0772L220.113 28.5382H226.603L227.144 29.0772V41.4624H227.685C229.487 39.668 231.831 38.7702 234.716 38.7702C237.925 38.7702 240.44 39.7486 242.261 41.705C244.082 43.6623 244.993 46.2744 244.993 49.5404V65.6951ZM257.973 52.7712C257.973 47.7452 259.955 45.2319 263.923 45.2319C267.888 45.2319 269.872 47.7452 269.872 52.7712C269.872 57.7978 267.888 60.3098 263.923 60.3098C259.955 60.3098 257.973 57.7978 257.973 52.7712ZM250.401 52.7713C250.401 56.9712 251.545 60.3556 253.835 62.9214C256.125 65.4894 258.947 66.7723 262.3 66.7723C263.742 66.7723 265.066 66.5204 266.275 66.0187C267.483 65.5161 268.258 65.1213 268.6 64.8337C268.943 64.5466 269.186 64.2951 269.331 64.0796H269.872L270.413 65.6951L270.954 66.2337H276.902L277.444 65.6951V29.0772L276.902 28.5382H270.413L269.872 29.0772V41.4624H269.331L268.682 40.8161C268.213 40.35 267.392 39.8924 266.221 39.4428C265.049 38.9941 263.742 38.7702 262.3 38.7702C258.947 38.7702 256.125 40.0535 253.835 42.6207C251.545 45.1874 250.401 48.5713 250.401 52.7713Z" fill="#21F999"/>
</svg>
